<svg width="24" height="24" viewBox="0 0 24 24" fill="currentColor" xmlns="http://www.w3.org/2000/svg">
<path d="M8.51974 20.5C7.96746 20.5 7.51974 20.9477 7.51974 21.5C7.51974 22.0523 7.96746 22.5 8.51974 22.5V20.5ZM8.52978 22.5C9.08206 22.5 9.52978 22.0523 9.52978 21.5C9.52978 20.9477 9.08206 20.5 8.52978 20.5V22.5ZM16.544 20.5C15.9918 20.5 15.544 20.9477 15.544 21.5C15.544 22.0523 15.9918 22.5 16.544 22.5V20.5ZM16.5541 22.5C17.1064 22.5 17.5541 22.0523 17.5541 21.5C17.5541 20.9477 17.1064 20.5 16.5541 20.5V22.5ZM5.00911 5C4.45683 5 4.00911 5.44772 4.00911 6C4.00911 6.55228 4.45683 7 5.00911 7V5ZM21.9391 8.48507L22.9091 8.7283V8.7283L21.9391 8.48507ZM20.9361 12.4851L19.9661 12.2418L19.9661 12.2418L20.9361 12.4851ZM6.01215 13C5.45987 13 5.01215 13.4477 5.01215 14C5.01215 14.5523 5.45987 15 6.01215 15V13ZM2 1C1.44772 1 1 1.44772 1 2C1 2.55228 1.44772 3 2 3V1ZM4.59285 2.90666L5.58846 2.81304L4.59285 2.90666ZM5.84164 16.1867L4.84603 16.2803L5.84164 16.1867ZM19.0516 19C19.6039 19 20.0516 18.5523 20.0516 18C20.0516 17.4477 19.6039 17 19.0516 17V19ZM8.51974 22.5H8.52978V20.5H8.51974V22.5ZM8.02126 21.5C8.02126 21.221 8.2473 21 8.51974 21V23C9.34615 23 10.0213 22.3313 10.0213 21.5H8.02126ZM8.51974 21C8.79219 21 9.01823 21.221 9.01823 21.5H7.01823C7.01823 22.3313 7.69334 23 8.51974 23V21ZM9.01823 21.5C9.01823 21.779 8.79219 22 8.51974 22V20C7.69334 20 7.01823 20.6687 7.01823 21.5H9.01823ZM8.51974 22C8.2473 22 8.02126 21.779 8.02126 21.5H10.0213C10.0213 20.6687 9.34615 20 8.51974 20V22ZM16.544 22.5H16.5541V20.5H16.544V22.5ZM16.0456 21.5C16.0456 21.221 16.2716 21 16.544 21V23C17.3704 23 18.0456 22.3313 18.0456 21.5H16.0456ZM16.544 21C16.8165 21 17.0425 21.221 17.0425 21.5H15.0425C15.0425 22.3313 15.7176 23 16.544 23V21ZM17.0425 21.5C17.0425 21.779 16.8165 22 16.544 22V20C15.7176 20 15.0425 20.6687 15.0425 21.5H17.0425ZM16.544 22C16.2716 22 16.0456 21.779 16.0456 21.5H18.0456C18.0456 20.6687 17.3704 20 16.544 20V22ZM5.00911 7H19.9929V5H5.00911V7ZM20.9691 8.24184L19.9661 12.2418L21.906 12.7283L22.9091 8.7283L20.9691 8.24184ZM18.9899 13H6.01215V15H18.9899V13ZM19.9661 12.2418C19.8549 12.6855 19.4537 13 18.9899 13V15C20.3671 15 21.5708 14.0653 21.906 12.7283L19.9661 12.2418ZM19.9929 7C20.6511 7 21.1264 7.61471 20.9691 8.24184L22.9091 8.7283C23.3849 6.83084 21.9449 5 19.9929 5V7ZM2 3H3.59419V1H2V3ZM3.59724 3.00028L4.84603 16.2803L6.83724 16.0931L5.58846 2.81304L3.59724 3.00028ZM7.83895 19H19.0516V17H7.83895V19ZM4.84603 16.2803C4.99121 17.8242 6.29002 19 7.83895 19V17C7.31712 17 6.88535 16.6046 6.83724 16.0931L4.84603 16.2803ZM3.59419 3C3.59635 3 3.5965 3.00028 3.59603 3.00009C3.59602 3.00009 3.59616 3.00014 3.59643 3.00031C3.5967 3.00048 3.59703 3.00072 3.59736 3.00102C3.59809 3.00168 3.59809 3.00195 3.59776 3.0013C3.59719 3.00017 3.59715 2.99932 3.59724 3.00028L5.58846 2.81304C5.4916 1.78296 4.62543 1 3.59419 1V3Z" fill="currentColor"/>
</svg>
